#!OML:ASF G:\JayActor3\Patient Classification 1\Patient 1\Session 5\male.ASF
:FULLY-SPECIFIED
:DEGREES
793
root 33.9475 16.022 -3.49061 205.679 -81.4944 -184.975
lowerback 32.2797 0.369952 -0.109819
upperback 6.6756 -0.50122 -1.454
thorax -9.28692 -0.538084 -1.24446
lowerneck 3.35386 1.24557 2.39709
upperneck -17.4612 1.5415 -0.421554
head -5.79817 0.470448 -0.607511
rclavicle -1.49089e-014 -3.12092e-014
rhumerus -27.8525 3.79538 -89.8325
rradius 37.4663
rwrist -3.6317
rhand -20.7788 -6.70957
rfingers 7.12502
rthumb 5.58793 -36.6159
lclavicle -1.49089e-014 -3.12092e-014
lhumerus -28.5953 -7.85532 86.473
lradius 35.0541
lwrist 23.6777
lhand -20.9336 10.3764
lfingers 7.12502
lthumb 5.4385 40.2866
rfemur -61.6018 1.97026 15.8705
rtibia 88.9092
rfoot -9.91038 -5.90577
rtoes -17.8222
lfemur -48.7159 1.47906 -25.8815
ltibia 43.3977
lfoot -11.9782 10.4566
ltoes -6.5963
794
root 34.054 16.0351 -3.504 205.427 -81.577 -184.626
lowerback 32.2513 0.36708 -0.0665043
upperback 6.65239 -0.484576 -1.43713
thorax -9.30083 -0.529676 -1.2562
lowerneck 3.30241 1.23301 2.4368
upperneck -17.3863 1.5317 -0.394931
head -5.76599 0.462809 -0.604511
rclavicle -2.96189e-014 -9.93923e-016
rhumerus -27.8881 3.8185 -89.8119
rradius 37.5254
rwrist -3.68486
rhand -20.7998 -6.70346
rfingers 7.12502
rthumb 5.56767 -36.6103
lclavicle -2.96189e-014 -9.93923e-016
lhumerus -28.53 -7.85603 86.4527
lradius 35.2067
lwrist 23.76
lhand -20.9896 10.2916
lfingers 7.12502
lthumb 5.38442 40.2032
rfemur -60.8897 1.88296 15.912
rtibia 89.3876
rfoot -9.84446 -6.0388
rtoes -17.9346
lfemur -48.9781 1.46774 -25.7033
ltibia 42.8993
lfoot -11.4117 10.3044
ltoes -6.51845
795
root 34.1602 16.0471 -3.51791 205.133 -81.6573 -184.24
lowerback 32.2186 0.36536 -0.0162417
upperback 6.62817 -0.46413 -1.42099
thorax -9.31411 -0.519601 -1.27385
lowerneck 3.26413 1.22071 2.47235
upperneck -17.3224 1.52252 -0.366291
head -5.73959 0.455461 -0.600376
rclavicle -1.98785e-016 3.20043e-014
rhumerus -27.9282 3.84423 -89.7906
rradius 37.5829
rwrist -3.7268
rhand -20.8085 -6.69185
rfingers 7.12502
rthumb 5.55925 -36.5989
lclavicle -1.98785e-016 3.20043e-014
lhumerus -28.4758 -7.859 86.44
lradius 35.355
lwrist 23.859
lhand -21.038 10.203
lfingers 7.12502
lthumb 5.33766 40.1158
rfemur -60.1591 1.81239 15.9558
rtibia 89.7323
rfoot -9.82544 -6.0918
rtoes -18.1439
lfemur -49.2322 1.44525 -25.512
ltibia 42.4068
lfoot -10.8639 10.1629
ltoes -6.38151
796
root 34.2662 16.058 -3.53217 204.802 -81.7258 -183.832
lowerback 32.1872 0.366464 0.0358658
upperback 6.60738 -0.440461 -1.40802
thorax -9.32401 -0.50829 -1.29698
lowerneck 3.2369 1.20987 2.50327
upperneck -17.2728 1.51441 -0.341669
head -5.71954 0.448963 -0.596939
rclavicle -1.39149e-015 -2.18663e-014
rhumerus -27.9635 3.88508 -89.7716
rradius 37.6316
rwrist -3.76668
rhand -20.8039 -6.68018
rfingers 7.12502
rthumb 5.56368 -36.5871
lclavicle -1.39149e-015 -2.18663e-014
lhumerus -28.4257 -7.85871 86.4324
lradius 35.4874
lwrist 23.9673
lhand -21.0741 10.1011
lfingers 7.12502
lthumb 5.3028 40.0147
rfemur -59.4071 1.77156 15.9948
rtibia 89.9401
rfoot -9.81206 -6.0806
rtoes -18.3795
lfemur -49.4686 1.41103 -25.3091
ltibia 41.9217
lfoot -10.3443 10.038
ltoes -6.18895
797
root 34.372 16.0679 -3.54676 204.481 -81.7864 -183.45
lowerback 31.9057 0.366953 0.0972255
upperback 7.02124 -0.416202 -1.34858
thorax -9.50658 -0.508648 -1.38083
lowerneck 3.22694 1.20111 2.52658
upperneck -17.242 1.50812 -0.321827
head -5.70835 0.443848 -0.594047
rclavicle -3.49861e-014 -5.80451e-014
rhumerus -27.9899 3.93303 -89.7534
rradius 37.6698
rwrist -3.79909
rhand -20.7903 -6.67522
rfingers 7.12502
rthumb 5.57681 -36.5818
lclavicle -3.49861e-014 -5.80451e-014
lhumerus -28.3769 -7.85068 86.4306
lradius 35.6002
lwrist 24.075
lhand -21.0989 10.0125
lfingers 7.12502
lthumb 5.2789 39.9267
rfemur -58.6332 1.75981 16.0252
rtibia 90.009
rfoot -9.7364 -6.03117
rtoes -18.4501
lfemur -49.6836 1.3561 -25.0948
ltibia 41.4471
lfoot -9.86944 9.9263
ltoes -5.84456
798
root 34.4778 16.0765 -3.56162 204.205 -81.8329 -183.133
lowerback 31.873 0.371982 0.139988
upperback 7.01418 -0.393414 -1.34218
thorax -9.49857 -0.498262 -1.40725
lowerneck 3.22732 1.19348 2.54387
upperneck -17.2281 1.50164 -0.310187
head -5.70418 0.439236 -0.592853
rclavicle 2.54444e-014 -1.59028e-015
rhumerus -28.001 3.98495 -89.7336
rradius 37.698
rwrist -3.82409
rhand -20.7706 -6.67724
rfingers 7.12502
rthumb 5.59588 -36.5834
lclavicle 2.54444e-014 -1.59028e-015
lhumerus -28.3255 -7.83802 86.4346
lradius 35.6915
lwrist 24.1762
lhand -21.1124 9.93102
lfingers 7.12502
lthumb 5.26581 39.8456
rfemur -57.8425 1.78369 16.0399
rtibia 89.939
rfoot -9.5572 -5.96513
rtoes -18.3445
lfemur -49.8765 1.28218 -24.8778
ltibia 40.9817
lfoot -9.43369 9.84286
ltoes -5.37549
799
root 34.5836 16.084 -3.57686 203.995 -81.8678 -182.9
lowerback 31.8432 0.379621 0.17145
upperback 7.01278 -0.372153 -1.33929
thorax -9.48542 -0.488635 -1.43045
lowerneck 3.22758 1.188 2.55127
upperneck -17.2163 1.49661 -0.302183
head -5.70064 0.43619 -0.591251
rclavicle 1.15295e-014 1.23246e-014
rhumerus -27.9979 4.04607 -89.7129
rradius 37.7092
rwrist -3.84277
rhand -20.7528 -6.68865
rfingers 7.12502
rthumb 5.61306 -36.5943
lclavicle 1.15295e-014 1.23246e-014
lhumerus -28.2753 -7.81777 86.4463
lradius 35.7586
lwrist 24.2589
lhand -21.1172 9.87158
lfingers 7.12502
lthumb 5.26122 39.7863
rfemur -57.038 1.84253 16.0401
rtibia 89.7298
rfoot -9.25177 -5.88972
rtoes -18.0095
lfemur -50.0493 1.18994 -24.66
ltibia 40.525
lfoot -9.0163 9.78892
ltoes -4.84439
800
root 34.6896 16.0904 -3.59264 203.861 -81.8954 -182.758
lowerback 31.8186 0.390128 0.189476
upperback 7.01293 -0.351988 -1.33682
thorax -9.47295 -0.479359 -1.44586
lowerneck 3.22371 1.18505 2.5515
upperneck -17.1967 1.49306 -0.303128
head -5.6939 0.435186 -0.591307
rclavicle -9.14409e-015 -5.1684e-015
rhumerus -27.9909 4.10297 -89.6853
rradius 37.7148
rwrist -3.84748
rhand -20.741 -6.70015
rfingers 7.12502
rthumb 5.62446 -36.6055
lclavicle -9.14409e-015 -5.1684e-015
lhumerus -28.2347 -7.79774 86.4721
lradius 35.8084
lwrist 24.3208
lhand -21.1204 9.8353
lfingers 7.12502
lthumb 5.25814 39.7501
rfemur -56.2243 1.93423 16.0294
rtibia 89.3822
rfoot -8.83226 -5.79628
rtoes -17.367
lfemur -50.2034 1.08126 -24.4445
ltibia 40.073
lfoot -8.59687 9.76845
ltoes -4.33193
801
root 34.7957 16.0955 -3.60906 203.784 -81.9149 -182.684
lowerback 31.8001 0.402376 0.193803
upperback 7.01103 -0.334173 -1.3354
thorax -9.46583 -0.470915 -1.45362
lowerneck 3.20918 1.18639 2.54541
upperneck -17.1608 1.49385 -0.310071
head -5.6801 0.437549 -0.592318
rclavicle -5.725e-014 -3.53837e-014
rhumerus -27.9828 4.14569 -89.6518
rradius 37.715
rwrist -3.82727
rhand -20.7311 -6.69559
rfingers 7.12502
rthumb 5.63396 -36.6007
lclavicle -5.725e-014 -3.53837e-014
lhumerus -28.211 -7.78211 86.5082
lradius 35.8451
lwrist 24.3641
lhand -21.1281 9.82935
lfingers 7.12502
lthumb 5.25062 39.7443
rfemur -55.4099 2.05828 16.0146
rtibia 88.8984
rfoot -8.35465 -5.69296
rtoes -16.5234
lfemur -50.348 0.963862 -24.2321
ltibia 39.625
lfoot -8.14528 9.78037
ltoes -3.95235
802
root 34.9021 16.0994 -3.62619 203.73 -81.9205 -182.641
lowerback 31.7822 0.41998 0.185287
upperback 7.0064 -0.313852 -1.33613
thorax -9.46211 -0.461039 -1.45732
lowerneck 3.18535 1.19053 2.54124
upperneck -17.1081 1.4972 -0.326372
head -5.65934 0.442133 -0.596614
rclavicle 3.97569e-016 2.94201e-014
rhumerus -27.9763 4.1738 -89.6159
rradius 37.7128
rwrist -3.79072
rhand -20.729 -6.67778
rfingers 7.12502
rthumb 5.63598 -36.5828
lclavicle 3.97569e-016 2.94201e-014
lhumerus -28.2069 -7.77794 86.554
lradius 35.874
lwrist 24.3861
lhand -21.1347 9.83872
lfingers 7.12502
lthumb 5.24424 39.7538
rfemur -54.6016 2.22178 16.0013
rtibia 88.2805
rfoot -7.88398 -5.59098
rtoes -15.5352
lfemur -50.4881 0.848331 -24.0228
ltibia 39.1805
lfoot -7.65353 9.81896
ltoes -3.74435
803
root 35.0086 16.1021 -3.64425 203.671 -81.921 -182.598
lowerback 31.7612 0.439707 0.170362
upperback 7.0013 -0.29268 -1.33581
thorax -9.45741 -0.450606 -1.45641
lowerneck 3.15883 1.19791 2.53583
upperneck -17.051 1.50411 -0.348036
head -5.63661 0.449021 -0.60255
rclavicle 4.11484e-014 5.66536e-014
rhumerus -27.9687 4.17991 -89.5752
rradius 37.7079
rwrist -3.73698
rhand -20.7334 -6.6387
rfingers 7.12502
rthumb 5.63173 -36.5439
lclavicle 4.11484e-014 5.66536e-014
lhumerus -28.22 -7.78784 86.6096
lradius 35.8971
lwrist 24.3932
lhand -21.1378 9.85734
lfingers 7.12502
lthumb 5.24133 39.7725
rfemur -53.7949 2.412 16.003
rtibia 87.5302
rfoot -7.45973 -5.52431
rtoes -14.4337
lfemur -50.6277 0.735295 -23.8106
ltibia 38.7436
lfoot -7.1294 9.87275
ltoes -3.66551
804
root 35.1153 16.1033 -3.66343 203.596 -81.916 -182.546
lowerback 31.7366 0.461928 0.147776
upperback 6.99695 -0.270684 -1.33433
thorax -9.4501 -0.439637 -1.45001
lowerneck 3.13345 1.20671 2.53021
upperneck -16.9968 1.51225 -0.374019
head -5.61496 0.456738 -0.609884
rclavicle 3.99557e-014 3.33958e-014
rhumerus -27.9539 4.19248 -89.5361
rradius 37.6902
rwrist -3.70381
rhand -20.7455 -6.58605
rfingers 7.12502
rthumb 5.6201 -36.4915
lclavicle 3.99557e-014 3.33958e-014
lhumerus -28.2476 -7.81395 86.6724
lradius 35.9147
lwrist 24.393
lhand -21.1344 9.85597
lfingers 7.12502
lthumb 5.24454 39.7711
rfemur -52.9891 2.62677 16.024
rtibia 86.6513
rfoot -7.15719 -5.51354
rtoes -13.3296
lfemur -50.7698 0.631959 -23.5972
ltibia 38.316
lfoot -6.58389 9.93102
ltoes -3.70329
805
root 35.2219 16.1035 -3.68383 203.483 -81.9124 -182.464
lowerback 31.7082 0.483452 0.124315
upperback 6.99353 -0.249606 -1.33108
thorax -9.43995 -0.429059 -1.44071
lowerneck 3.12147 1.21719 2.52216
upperneck -16.9557 1.5232 -0.397772
head -5.59969 0.465569 -0.616407
rclavicle -1.03368e-014 -7.99114e-014
rhumerus -27.9379 4.20395 -89.5014
rradius 37.6663
rwrist -3.68763
rhand -20.7775 -6.50003
rfingers 7.12502
rthumb 5.5892 -36.4063
lclavicle -1.03368e-014 -7.99114e-014
lhumerus -28.2915 -7.85513 86.7389
lradius 35.9302
lwrist 24.3883
lhand -21.114 9.85013
lfingers 7.12502
lthumb 5.2643 39.7647
rfemur -52.1722 2.85863 16.0725
rtibia 85.6402
rfoot -7.02319 -5.57984
rtoes -12.3254
lfemur -50.9083 0.534498 -23.3727
ltibia 37.901
lfoot -6.05201 9.98345
ltoes -3.69903
806
root 35.3286 16.1024 -3.7055 203.323 -81.9193 -182.345
lowerback 31.6767 0.50026 0.108718
upperback 6.99299 -0.231808 -1.32564
thorax -9.42514 -0.420179 -1.43218
lowerneck 3.11906 1.22617 2.51681
upperneck -16.9271 1.53241 -0.421708
head -5.58998 0.473095 -0.623445
rclavicle -4.9895e-014 -3.20043e-014
rhumerus -27.9197 4.21531 -89.4722
rradius 37.6374
rwrist -3.69042
rhand -20.8209 -6.38942
rfingers 7.12502
rthumb 5.54732 -36.2968
lclavicle -4.9895e-014 -3.20043e-014
lhumerus -28.3457 -7.9093 86.8059
lradius 35.9417
lwrist 24.3824
lhand -21.0673 9.83537
lfingers 7.12502
lthumb 5.30939 39.7489
rfemur -51.3371 3.09877 16.1542
rtibia 84.4948
rfoot -7.05754 -5.74077
rtoes -11.4569
lfemur -51.043 0.442619 -23.1396
ltibia 37.4979
lfoot -5.53495 10.0312
ltoes -3.661
807
root 35.4355 16.1001 -3.7284 203.12 -81.9375 -182.197
lowerback 31.6501 0.511484 0.102349
upperback 6.99297 -0.21819 -1.31978
thorax -9.41209 -0.413468 -1.42693
lowerneck 3.1274 1.23272 2.51382
upperneck -16.9057 1.53983 -0.439003
head -5.58443 0.479013 -0.628793
rclavicle -3.55825e-014 -1.13307e-014
rhumerus -27.909 4.21504 -89.4506
rradius 37.6135
rwrist -3.69411
rhand -20.8709 -6.2564
rfingers 7.12502
rthumb 5.49899 -36.1651
lclavicle -3.55825e-014 -1.13307e-014
lhumerus -28.4119 -7.97415 86.8705
lradius 35.947
lwrist 24.3771
lhand -20.995 9.80809
lfingers 7.12502
lthumb 5.37918 39.7198
rfemur -50.476 3.34548 16.2661
rtibia 83.2116
rfoot -7.21512 -5.99882
rtoes -10.6865
lfemur -51.1703 0.352386 -22.897
ltibia 37.1068
lfoot -5.02445 10.0745
ltoes -3.62138
